<svg width="41" height="35" viewBox="0 0 41 35" fill="none" xmlns="http://www.w3.org/2000/svg">
<path id="Vector" d="M40.5469 35H25.1623V19.9758C25.1623 18.4865 25.2704 16.9535 25.4867 15.3766C25.7029 13.7997 26.0582 12.2812 26.5525 10.8212C27.0467 9.36108 27.68 7.9594 28.4524 6.61613C29.2247 5.27287 30.1824 4.13401 31.3254 3.19956C32.4684 2.26511 33.7659 1.49127 35.2179 0.878036C36.6698 0.264809 38.3689 -0.0272102 40.3152 0.00199127V6.87895C39.1721 6.87895 38.1836 7.08336 37.3495 7.49218C36.5154 7.901 35.7894 8.45583 35.1715 9.15667C34.5537 9.8575 34.0903 10.6605 33.7814 11.5658C33.4724 12.471 33.1944 13.4055 32.9473 14.3691C32.7001 15.3328 32.5611 16.2964 32.5302 17.2601C32.4993 18.2237 32.453 19.129 32.3912 19.9758H40.5469V35ZM0.0001297 35V19.9758C0.0001297 17.6981 0.247269 15.3766 0.741554 13.0113C1.23584 10.6459 2.06994 8.49963 3.24387 6.57233C4.41779 4.64503 5.96243 3.06815 7.87778 1.84169C9.79313 0.615227 12.2182 0.00199127 15.153 0.00199127V6.87895C13.4539 6.87895 12.0792 7.31697 11.0288 8.19302C9.97849 9.06906 9.15983 10.1787 8.57287 11.522C7.9859 12.8653 7.59975 14.2961 7.41439 15.8146C7.22903 17.3331 7.12091 18.7202 7.09002 19.9758H15.2457V35H0.0001297Z" fill="#2A4ECA"/>
</svg>
